<svg xmlns="http://www.w3.org/2000/svg" width="116" height="32" fill="none"><path fill="#EA4335" d="M10.742 15.418.102 26.846A2.88 2.88 0 0 0 2.879 29c.53 0 1.03-.142 1.459-.405l.03-.02 11.97-6.988-5.606-6.179.01.01Z"/><path fill="#FBBC04" d="M21.5 13.477h-.01l-5.165-3.043-5.825 5.248 5.845 5.916 5.145-3.003A2.918 2.918 0 0 0 23 16.036c0-1.102-.6-2.063-1.5-2.548v-.01Z"/><path fill="#4285F4" d="M.1 5.164c-.06.243-.1.485-.1.748v20.186c0 .262.03.505.1.748l11-11.134L.1 5.164Z"/><path fill="#34A853" d="m10.822 16.005 5.506-5.572-11.96-7.018A2.84 2.84 0 0 0 2.879 3C1.55 3 .431 3.92.102 5.154l10.72 10.84v.011Z"/><path fill="#1E222C" d="M37.849 6.039c0 .9-.267 1.617-.801 2.151-.6.636-1.389.954-2.367.954-.936 0-1.728-.324-2.376-.972-.648-.648-.972-1.446-.972-2.394 0-.948.324-1.746.972-2.394.648-.648 1.44-.972 2.376-.972.474 0 .921.084 1.341.252.42.168.765.405 1.035.711l-.594.594a1.952 1.952 0 0 0-.774-.558 2.464 2.464 0 0 0-1.008-.207c-.702 0-1.296.243-1.782.729-.48.492-.72 1.107-.72 1.845s.24 1.353.72 1.845c.486.486 1.08.729 1.782.729.642 0 1.176-.18 1.602-.54.426-.36.672-.855.738-1.485h-2.34v-.774h3.123c.03.168.045.33.045.486Zm4.678-3.483v.792h-2.934v2.043h2.646v.774h-2.646v2.043h2.934V9h-3.762V2.556h3.762Zm3.222.792V9h-.828V3.348h-1.8v-.792h4.428v.792h-1.8ZM51.039 9h-.828V2.556h.828V9Zm3.405-5.652V9h-.828V3.348h-1.8v-.792h4.428v.792h-1.8Zm10.595 2.43c0 .954-.318 1.752-.954 2.394-.642.648-1.428.972-2.358.972-.936 0-1.722-.324-2.358-.972-.636-.642-.954-1.44-.954-2.394 0-.954.318-1.752.954-2.394.636-.648 1.422-.972 2.358-.972.936 0 1.722.327 2.358.981.636.642.954 1.437.954 2.385Zm-5.778 0c0 .744.234 1.359.702 1.845.474.486 1.062.729 1.764.729s1.287-.243 1.755-.729c.474-.48.71-1.095.71-1.845s-.236-1.365-.71-1.845c-.468-.486-1.053-.729-1.755-.729s-1.29.243-1.764.729c-.468.486-.702 1.101-.702 1.845ZM66.754 9h-.828V2.556h1.008l3.132 5.013h.036l-.036-1.242V2.556h.828V9h-.864l-3.276-5.256h-.036l.036 1.242V9ZM58.16 17.702c-2.356 0-4.28 1.786-4.28 4.242s1.924 4.243 4.28 4.243c2.356 0 4.281-1.797 4.281-4.243 0-2.445-1.925-4.242-4.28-4.242Zm0 6.818c-1.293 0-2.406-1.058-2.406-2.576 0-1.517 1.113-2.575 2.406-2.575 1.294 0 2.407 1.048 2.407 2.575 0 1.527-1.113 2.576-2.407 2.576Zm-9.334-6.818c-2.356 0-4.28 1.786-4.28 4.242s1.924 4.243 4.28 4.243c2.356 0 4.281-1.797 4.281-4.243 0-2.445-1.925-4.242-4.28-4.242Zm0 6.818c-1.293 0-2.406-1.058-2.406-2.576 0-1.517 1.113-2.575 2.406-2.575 1.294 0 2.406 1.048 2.406 2.575 0 1.527-1.112 2.576-2.406 2.576ZM37.717 19v1.796h4.332c-.13 1.009-.472 1.757-.983 2.266-.632.63-1.614 1.318-3.339 1.318-2.666 0-4.752-2.136-4.752-4.792 0-2.655 2.085-4.791 4.752-4.791 1.434 0 2.487.559 3.259 1.288l1.273-1.268C41.176 13.789 39.743 13 37.717 13 34.067 13 31 15.955 31 19.598c0 3.644 3.068 6.599 6.717 6.599 1.976 0 3.46-.64 4.622-1.847 1.193-1.188 1.564-2.865 1.564-4.213 0-.419-.03-.808-.1-1.128h-6.086V19Zm45.428 1.397c-.35-.948-1.434-2.705-3.65-2.705-2.215 0-4.02 1.717-4.02 4.242 0 2.376 1.805 4.243 4.231 4.243a4.229 4.229 0 0 0 3.55-1.877l-1.454-.968c-.482.709-1.144 1.178-2.096 1.178-.952 0-1.634-.43-2.065-1.288l5.704-2.346-.19-.48h-.01Zm-5.815 1.417c-.05-1.637 1.273-2.475 2.226-2.475.742 0 1.373.37 1.584.898l-3.81 1.577Zm-4.632 4.113h1.875V13.45h-1.875v12.478ZM69.63 18.64h-.06c-.421-.5-1.223-.948-2.246-.948-2.135 0-4.09 1.866-4.09 4.262 0 2.396 1.955 4.233 4.09 4.233 1.013 0 1.825-.45 2.246-.969h.06v.61c0 1.627-.872 2.495-2.276 2.495-1.143 0-1.855-.819-2.145-1.507l-1.635.678C64.046 28.622 65.29 30 67.354 30c2.196 0 4.05-1.288 4.05-4.422V17.95H69.63v.689Zm-2.146 5.87c-1.293 0-2.376-1.078-2.376-2.556 0-1.477 1.083-2.585 2.376-2.585 1.294 0 2.276 1.098 2.276 2.585 0 1.488-1.002 2.556-2.276 2.556Zm24.444-11.06h-4.482v12.477h1.875v-4.732h2.617c2.075 0 4.11-1.497 4.11-3.873 0-2.375-2.035-3.873-4.11-3.873h-.01Zm.05 6.019H89.32v-4.283h2.657c1.404 0 2.196 1.158 2.196 2.136 0 .979-.793 2.137-2.196 2.137v.01Zm11.56-1.797c-1.354 0-2.757.599-3.339 1.906l1.664.69c.351-.69 1.013-.92 1.705-.92.962 0 1.955.58 1.965 1.608v.13a4.204 4.204 0 0 0-1.955-.48c-1.795 0-3.61.979-3.61 2.806 0 1.667 1.464 2.745 3.109 2.745 1.253 0 1.955-.56 2.386-1.218h.06v.958h1.805v-4.781c0-2.216-1.665-3.454-3.81-3.454l.02.01Zm-.231 6.838c-.611 0-1.464-.31-1.464-1.058 0-.959 1.063-1.328 1.985-1.328.823 0 1.214.18 1.705.42a2.26 2.26 0 0 1-2.226 1.976v-.01Zm10.608-6.569-2.146 5.41h-.06l-2.226-5.41h-2.015l3.339 7.567-1.905 4.203h1.955L116 17.94h-2.085Zm-16.854 7.986h1.875V13.45H97.06v12.478Z"/></svg>